<svg width="845" height="334" viewBox="0 0 845 334" fill="none" xmlns="http://www.w3.org/2000/svg">
<path fill-rule="evenodd" clip-rule="evenodd" d="M23.375 72.944H0V334H844.95L826.625 310.701C824.392 307.946 821.965 304.935 819.36 301.705C793.868 270.089 751.392 217.409 708.333 176.963C660.875 132.383 614.125 102.664 566.667 110.094C549.677 112.753 532.778 120.174 515.905 127.584C485.645 140.872 455.469 154.123 425 139.813C401.271 128.668 377.719 100.806 354.167 72.944C330.615 45.0819 307.062 17.2197 283.333 6.07487C247.85 -10.5906 212.762 10.1251 177.479 30.9566C165.571 37.9867 153.642 45.0301 141.667 50.6543C94.2083 72.944 47.4583 72.944 23.375 72.944Z" fill="url(#paint0_linear_5_263)"/>
<defs>
<linearGradient id="paint0_linear_5_263" x1="30.5" y1="435.688" x2="695.342" y2="243.971" gradientUnits="userSpaceOnUse">
<stop stop-color="#1F0740"/>
<stop offset="1" stop-color="#310078"/>
</linearGradient>
</defs>
</svg>
