<svg width="1158" height="869" viewBox="0 0 1158 869" fill="none" xmlns="http://www.w3.org/2000/svg">
<path fill-rule="evenodd" clip-rule="evenodd" d="M1157.66 0H31.5876C30.899 1.60862 30.2076 3.21709 29.5162 4.82545L29.5162 4.8255C16.7288 34.5729 3.95701 64.284 9.2224 94.2505C14.4841 124.196 37.7576 153.886 61.0594 183.613C78.5996 205.989 96.1558 228.386 106.058 250.927C129.114 303.414 110.669 355.117 78.3904 407.604C70.7899 419.963 62.4224 432.278 54.0705 444.571L54.0703 444.571C26.9528 484.483 0 524.153 0 564.281C0 615.325 43.6126 665.629 67.2165 692.854C67.5963 693.292 67.9708 693.724 68.3399 694.15C68.6191 694.472 68.8952 694.791 69.168 695.106L92.2237 720.957V722.618L141.543 755.528C189.66 788.437 287.097 854.257 384.534 866.914C454.289 875.372 524.045 856.583 593.801 837.793C621.482 830.337 649.163 822.881 676.844 817.128C775.483 796.876 872.92 796.876 970.356 808.689C1038.39 817.527 1106.42 832.124 1157.66 844.437V0Z" fill="url(#paint0_linear_39_677)"/>
<defs>
<linearGradient id="paint0_linear_39_677" x1="730.166" y1="-219.102" x2="96.7125" y2="764.003" gradientUnits="userSpaceOnUse">
<stop stop-color="#1F0740"/>
<stop offset="1" stop-color="#360080"/>
</linearGradient>
</defs>
</svg>
